<svg xmlns="http://www.w3.org/2000/svg" fill="none" viewBox="0 0 24 24" height="24" width="24">
<path fill="#C9C2F5" d="M9 0H24V15C24 19.9675 19.9675 24 15 24H0V9C0 4.0325 4.0325 0 9 0Z"></path>
<path fill="#2F1761" d="M13.8479 10.9716V7.79301C14.3179 7.66555 14.6087 7.19553 14.3418 6.76933C14.1865 6.52238 13.8599 6.375 13.5173 6.375H10.4981C10.1555 6.375 9.82891 6.52238 9.67357 6.76933C9.4067 7.19553 9.69747 7.66953 10.1675 7.79301V10.9716L6.76984 14.8472C6.30779 15.4885 6.25202 16.0939 6.59856 16.5799C6.94509 17.0499 7.61427 17.3128 8.51447 17.3128H15.493C16.3932 17.3128 17.0863 17.0459 17.4089 16.5799C17.7554 16.1099 17.6758 15.4885 17.2376 14.8472L13.844 10.9716H13.8479Z"></path>
</svg>
