<svg xmlns="http://www.w3.org/2000/svg" fill="none" viewBox="0 0 24 24" height="24" width="24">
<path fill="#C1E0FE" d="M9 0H24V15C24 19.9675 19.9675 24 15 24H0V9C0 4.0325 4.0325 0 9 0Z"></path>
<g clip-path="url(#clip0_532_3278)">
<path fill="#0D1F91" d="M9.21785 9.59065C9.21785 10.3294 8.61842 10.9313 7.88264 10.9313C7.14686 10.9313 6.54742 10.3294 6.54742 9.59065C6.54742 8.85188 7.14451 8.25 7.88264 8.25C8.62077 8.25 9.21785 8.85188 9.21785 9.59065Z"></path>
<path fill="#0D1F91" d="M13.3364 11.1343C13.3364 11.8731 12.7369 12.4749 12.0011 12.4749C11.2654 12.4749 10.6659 11.8731 10.6659 11.1343C10.6659 10.3955 11.2654 9.79364 12.0011 9.79364C12.7369 9.79364 13.3364 10.3955 13.3364 11.1343Z"></path>
<path fill="#0D1F91" d="M16.1126 10.9313C16.8484 10.9313 17.4478 10.3294 17.4478 9.59065C17.4478 8.85188 16.8484 8.25 16.1126 8.25C15.3768 8.25 14.7774 8.85188 14.7774 9.59065C14.7774 10.3294 15.3768 10.9313 16.1126 10.9313Z"></path>
<path fill="#0D1F91" d="M19.4976 14.5449H15.3791V14.5473C14.956 13.7259 14.2437 13.0792 13.3786 12.7417C13.9945 11.8967 14.9912 11.3467 16.1125 11.3467C17.9132 11.3467 19.3918 12.7629 19.4976 14.5449Z"></path>
<path fill="#0D1F91" d="M9.0957 14.5449C9.05573 14.611 9.02047 14.6818 8.98521 14.7526C8.94995 14.8211 8.91939 14.8895 8.88883 14.9603C8.73839 15.312 8.64201 15.692 8.6185 16.0909H15.3909C15.3674 15.6896 15.2711 15.3096 15.1206 14.9603C15.0901 14.8895 15.0595 14.8211 15.0242 14.7526C14.989 14.6818 14.9537 14.6134 14.9138 14.5449C14.5141 13.8793 13.8935 13.3648 13.1554 13.0957L13.1205 13.0831C13.0656 13.0632 13.0094 13.0428 12.9532 13.0272C12.8874 13.0084 12.8193 12.9918 12.7511 12.9777C12.5113 12.9234 12.2621 12.8927 12.0059 12.8927C11.7497 12.8927 11.4958 12.9257 11.2537 12.98C11.2326 12.9851 11.2115 12.99 11.1904 12.9949C11.1435 13.0058 11.0969 13.0166 11.0515 13.0296C10.9973 13.0465 10.9446 13.0649 10.891 13.0835L10.8493 13.098C10.1136 13.3671 9.49767 13.8817 9.09805 14.5449H9.0957Z"></path>
<path fill="#0D1F91" d="M7.88505 11.3443C9.00635 11.3443 10.0031 11.8967 10.6213 12.7416C9.76093 13.0815 9.05101 13.7259 8.62788 14.5449H4.5C4.60578 12.7629 6.08439 11.3467 7.88505 11.3443Z"></path>
</g>
<defs>
<clipPath id="clip0_532_3278">
<rect transform="translate(4.5 4.5)" fill="white" height="15" width="15"></rect>
</clipPath>
</defs>
</svg>
