<svg version="1.1" id="Layer_1" xmlns="http://www.w3.org/2000/svg" xmlns:xlink="http://www.w3.org/1999/xlink" x="0px" y="0px"
	 width="100%" viewBox="0 0 200 200" enable-background="new 0 0 200 200" xml:space="preserve">
<path fill="#FEFEFE" opacity="1.000000" stroke="none" 
	d="
M135.000000,201.000000 
	C90.000000,201.000000 45.500004,201.000000 1.000006,201.000000 
	C1.000004,134.333344 1.000004,67.666679 1.000002,1.000015 
	C67.666656,1.000010 134.333313,1.000010 200.999969,1.000005 
	C200.999985,67.666649 200.999985,134.333298 201.000000,200.999969 
	C179.166672,201.000000 157.333328,201.000000 135.000000,201.000000 
M134.373245,126.973007 
	C133.906555,127.310242 133.439865,127.647469 132.993942,128.004715 
	C132.993942,128.004715 132.995102,127.976593 132.056900,127.959595 
	C114.740433,128.037094 97.421585,127.977463 80.108963,128.276978 
	C75.021988,128.365021 71.009277,127.099312 67.778656,122.223518 
	C66.700188,119.829651 65.438637,117.500008 64.572807,115.031555 
	C58.710377,98.318008 62.230976,81.132271 76.755196,69.387825 
	C100.330704,50.324417 129.617157,61.098156 140.339386,82.893677 
	C143.945129,90.223244 150.873108,93.187973 156.597977,89.742439 
	C163.671310,85.485321 164.631699,79.550621 160.937912,72.275177 
	C152.953339,56.548481 139.591064,46.878208 123.978889,40.254333 
	C116.911522,37.255821 108.836044,38.048218 101.119293,37.671410 
	C91.393478,37.196510 82.435921,39.229782 73.954414,43.732235 
	C54.796837,53.902142 43.619961,69.825287 39.733418,91.476227 
	C39.747280,91.875755 39.761143,92.275291 39.393219,93.403976 
	C39.368149,93.947990 39.343082,94.492004 39.084099,95.940575 
	C38.561790,105.849197 39.249470,115.559822 43.721218,124.814545 
	C43.721218,124.814545 43.835457,124.957596 43.880886,125.692696 
	C44.941372,127.764267 46.001858,129.835846 46.997375,131.955719 
	C46.997375,131.955719 47.078236,131.951767 47.116085,132.581238 
	C47.733440,133.407501 48.350800,134.233749 49.002880,135.009399 
	C49.002880,135.009399 48.942951,135.022568 49.031693,135.654327 
	C49.676960,136.471985 50.322231,137.289658 51.163250,138.746704 
	C79.713867,177.742371 137.979553,172.288528 159.317291,132.249207 
	C162.767578,125.774902 163.936020,119.812050 157.420227,113.434547 
	C153.525146,111.073563 149.610306,110.742935 145.460678,113.398064 
	C145.460678,113.398064 145.297958,113.547142 144.701721,113.757324 
	C143.367554,115.427689 142.033371,117.098053 140.949356,118.892616 
	C140.949356,118.892616 140.703369,118.778175 140.160187,119.161247 
	C138.955719,121.256920 137.751251,123.352600 136.545898,125.547951 
	C136.545898,125.547951 136.446228,125.549622 135.946472,125.746094 
	C135.602905,126.140709 135.259338,126.535324 134.982697,126.990402 
	C134.982697,126.990402 134.956100,126.904221 134.373245,126.973007 
M104.758698,109.362373 
	C104.758698,97.332191 104.758698,85.302010 104.758698,72.498177 
	C102.019844,73.600044 100.297554,74.168175 98.685905,74.961159 
	C86.401001,81.005760 74.703392,102.058609 76.437576,115.556259 
	C76.638695,117.121696 78.913956,119.539452 80.355553,119.635185 
	C86.989708,120.075737 93.684814,120.075912 100.320755,119.651299 
	C101.840302,119.554070 103.704926,117.387970 104.506210,115.735443 
	C105.231773,114.239082 104.723183,112.144310 104.758698,109.362373 
M117.992065,119.866516 
	C120.490318,119.869270 122.990936,119.803711 125.486313,119.889771 
	C129.939743,120.043358 131.845169,117.627991 130.854507,113.635834 
	C129.705902,109.007210 128.230270,104.342239 126.075127,100.111519 
	C123.554436,95.163200 119.510994,91.512367 113.177048,90.131943 
	C113.177048,99.053856 113.006058,107.514877 113.353539,115.954552 
	C113.408348,117.285675 115.807877,118.520279 117.992065,119.866516 
z"/>
<path fill="#6313E1" opacity="1.000000" stroke="none" 
	d="
M43.835457,124.957596 
	C43.835457,124.957596 43.721218,124.814545 43.814659,124.267395 
	C42.378071,114.158829 40.848042,104.597427 39.318016,95.036018 
	C39.343082,94.492004 39.368149,93.947990 39.669884,92.863922 
	C39.964279,91.929855 39.982010,91.535843 39.999741,91.141838 
	C43.619961,69.825287 54.796837,53.902142 73.954414,43.732235 
	C82.435921,39.229782 91.393478,37.196510 101.119293,37.671410 
	C108.836044,38.048218 116.911522,37.255821 123.978889,40.254333 
	C139.591064,46.878208 152.953339,56.548481 160.937912,72.275177 
	C164.631699,79.550621 163.671310,85.485321 156.597977,89.742439 
	C150.873108,93.187973 143.945129,90.223244 140.339386,82.893677 
	C129.617157,61.098156 100.330704,50.324417 76.755196,69.387825 
	C62.230976,81.132271 58.710377,98.318008 64.572807,115.031555 
	C65.438637,117.500008 66.700188,119.829651 67.920357,122.906372 
	C69.879868,127.797646 73.288139,129.844330 77.665398,129.873108 
	C94.546555,129.984161 111.429283,129.969528 128.310089,129.834091 
	C129.876617,129.821533 131.433655,128.623947 132.995102,127.976593 
	C132.995102,127.976593 132.993942,128.004715 133.292328,128.004959 
	C134.045853,127.638206 134.500977,127.271217 134.956100,126.904221 
	C134.956100,126.904221 134.982697,126.990402 135.269714,126.952858 
	C135.853226,126.460083 136.149719,126.004852 136.446228,125.549622 
	C136.446228,125.549622 136.545898,125.547951 136.907623,125.545769 
	C138.414017,123.288452 139.558701,121.033318 140.703369,118.778175 
	C140.703369,118.778175 140.949356,118.892616 141.175491,118.757034 
	C142.700409,116.930023 143.999191,115.238586 145.297958,113.547142 
	C145.297958,113.547142 145.460678,113.398064 145.951813,113.517349 
	C150.198318,113.775909 153.953705,113.915199 157.709091,114.054482 
	C163.936020,119.812050 162.767578,125.774902 159.317291,132.249207 
	C137.979553,172.288528 79.713867,177.742371 51.078941,138.060455 
	C50.310738,136.590332 49.626846,135.806458 48.942951,135.022568 
	C48.942951,135.022568 49.002880,135.009399 49.004997,134.679688 
	C48.364155,133.550568 47.721195,132.751160 47.078236,131.951767 
	C47.078236,131.951767 46.997375,131.955719 47.023216,131.558624 
	C45.977856,129.093536 44.906658,127.025566 43.835457,124.957596 
z"/>
<path fill="#EB4A6C" opacity="1.000000" stroke="none" 
	d="
M104.758728,109.837875 
	C104.723183,112.144310 105.231773,114.239082 104.506210,115.735443 
	C103.704926,117.387970 101.840302,119.554070 100.320755,119.651299 
	C93.684814,120.075912 86.989708,120.075737 80.355553,119.635185 
	C78.913956,119.539452 76.638695,117.121696 76.437576,115.556259 
	C74.703392,102.058609 86.401001,81.005760 98.685905,74.961159 
	C100.297554,74.168175 102.019844,73.600044 104.758698,72.498177 
	C104.758698,85.302010 104.758698,97.332191 104.758728,109.837875 
z"/>
<path fill="#F99048" opacity="1.000000" stroke="none" 
	d="
M117.557678,119.833015 
	C115.807877,118.520279 113.408348,117.285675 113.353539,115.954552 
	C113.006058,107.514877 113.177048,99.053856 113.177048,90.131943 
	C119.510994,91.512367 123.554436,95.163200 126.075127,100.111519 
	C128.230270,104.342239 129.705902,109.007210 130.854507,113.635834 
	C131.845169,117.627991 129.939743,120.043358 125.486313,119.889771 
	C122.990936,119.803711 120.490318,119.869270 117.557678,119.833015 
z"/>
<path fill="#7C47D2" opacity="1.000000" stroke="none" 
	d="
M132.526001,127.968094 
	C131.433655,128.623947 129.876617,129.821533 128.310089,129.834091 
	C111.429283,129.969528 94.546555,129.984161 77.665398,129.873108 
	C73.288139,129.844330 69.879868,127.797646 68.086334,123.218567 
	C71.009277,127.099312 75.021988,128.365021 80.108963,128.276978 
	C97.421585,127.977463 114.740433,128.037094 132.526001,127.968094 
z"/>
<path fill="#682DC4" opacity="1.000000" stroke="none" 
	d="
M39.201057,95.488297 
	C40.848042,104.597427 42.378071,114.158829 43.844452,124.180847 
	C39.249470,115.559822 38.561790,105.849197 39.201057,95.488297 
z"/>
<path fill="#7C47D2" opacity="1.000000" stroke="none" 
	d="
M157.564667,113.744514 
	C153.953705,113.915199 150.198318,113.775909 146.055054,113.478394 
	C149.610306,110.742935 153.525146,111.073563 157.564667,113.744514 
z"/>
<path fill="#7C47D2" opacity="1.000000" stroke="none" 
	d="
M144.999847,113.652237 
	C143.999191,115.238586 142.700409,116.930023 141.050415,118.694939 
	C142.033371,117.098053 143.367554,115.427689 144.999847,113.652237 
z"/>
<path fill="#7C47D2" opacity="1.000000" stroke="none" 
	d="
M140.431778,118.969711 
	C139.558701,121.033318 138.414017,123.288452 136.908066,125.495934 
	C137.751251,123.352600 138.955719,121.256920 140.431778,118.969711 
z"/>
<path fill="#682DC4" opacity="1.000000" stroke="none" 
	d="
M43.858173,125.325150 
	C44.906658,127.025566 45.977856,129.093536 47.055702,131.534454 
	C46.001858,129.835846 44.941372,127.764267 43.858173,125.325150 
z"/>
<path fill="#682DC4" opacity="1.000000" stroke="none" 
	d="
M47.097160,132.266510 
	C47.721195,132.751160 48.364155,133.550568 48.987637,134.704987 
	C48.350800,134.233749 47.733440,133.407501 47.097160,132.266510 
z"/>
<path fill="#682DC4" opacity="1.000000" stroke="none" 
	d="
M48.987320,135.338440 
	C49.626846,135.806458 50.310738,136.590332 50.981064,137.740768 
	C50.322231,137.289658 49.676960,136.471985 48.987320,135.338440 
z"/>
<path fill="#682DC4" opacity="1.000000" stroke="none" 
	d="
M39.866577,91.309036 
	C39.982010,91.535843 39.964279,91.929855 39.860779,92.499344 
	C39.761143,92.275291 39.747280,91.875755 39.866577,91.309036 
z"/>
<path fill="#7C47D2" opacity="1.000000" stroke="none" 
	d="
M136.196350,125.647858 
	C136.149719,126.004852 135.853226,126.460083 135.236237,126.922623 
	C135.259338,126.535324 135.602905,126.140709 136.196350,125.647858 
z"/>
<path fill="#7C47D2" opacity="1.000000" stroke="none" 
	d="
M134.664673,126.938614 
	C134.500977,127.271217 134.045853,127.638206 133.281952,127.994949 
	C133.439865,127.647469 133.906555,127.310242 134.664673,126.938614 
z"/>
</svg>
