<svg xmlns="http://www.w3.org/2000/svg" fill="none" viewBox="0 0 24 24" height="24" width="24">
<path fill="#91D9E3" d="M9 0H24V15C24 19.9675 19.9675 24 15 24H0V9C0 4.0325 4.0325 0 9 0Z"></path>
<path fill="#0F4F73" d="M11.9262 18.8177C10.1483 18.8177 8.62184 18.2227 7.34684 17.0327C6.07184 15.8427 5.35643 14.3764 5.20413 12.6268C5.18288 12.4604 5.23247 12.3116 5.34934 12.1877C5.46976 12.0602 5.61851 11.9964 5.79913 11.9929C5.96913 11.9929 6.11434 12.046 6.2383 12.1593C6.36226 12.2727 6.44018 12.4214 6.47559 12.5985C6.6208 13.9975 7.20872 15.1698 8.23226 16.1189C9.25934 17.0681 10.4883 17.5427 11.9227 17.5427C13.4846 17.5427 14.8091 16.9937 15.8929 15.8993C16.9802 14.8014 17.5221 13.4733 17.5221 11.9079C17.5221 10.3814 16.9731 9.08871 15.8752 8.03683C14.7773 6.98142 13.4598 6.45725 11.9191 6.45725C11.0975 6.45725 10.3289 6.64142 9.60643 7.00621C8.88747 7.371 8.25705 7.85621 7.71872 8.46538H8.99372C9.16018 8.46538 9.30184 8.52204 9.41163 8.63183C9.52143 8.74163 9.57809 8.88329 9.57809 9.04975C9.57809 9.21621 9.52143 9.36142 9.41163 9.47121C9.30184 9.581 9.16018 9.63767 8.99372 9.63767H6.24538C6.06476 9.63767 5.91247 9.57746 5.79205 9.45704C5.67163 9.33663 5.61143 9.18433 5.61143 9.00371V6.26246C5.61143 6.096 5.66809 5.95433 5.77788 5.84454C5.88768 5.73475 6.0258 5.68163 6.1958 5.68163C6.3658 5.68163 6.50393 5.73475 6.61372 5.84454C6.72351 5.95433 6.78018 6.09246 6.78018 6.26246V7.60475C7.43538 6.85392 8.20747 6.26246 9.09643 5.83038C9.98538 5.39829 10.931 5.18225 11.9298 5.18225C12.8754 5.18225 13.7643 5.35933 14.5966 5.7135C15.4289 6.06767 16.1585 6.55288 16.7854 7.16558C17.4123 7.77829 17.9046 8.49371 18.2623 9.31538C18.62 10.137 18.8006 11.0189 18.8006 11.9645C18.8006 12.9102 18.62 13.7991 18.2623 14.6314C17.9046 15.4637 17.4123 16.1897 16.7854 16.8095C16.1585 17.4293 15.4325 17.9181 14.5966 18.2758C13.7608 18.6335 12.8754 18.8141 11.9298 18.8141L11.9262 18.8177ZM10.5131 14.3941V9.61288L14.0087 12.0035L10.5131 14.3941Z"></path>
</svg>
